<svg xmlns="http://www.w3.org/2000/svg" width="33" height="25" fill="none"><g clip-path="url(#a)"><path fill="#fff" d="M27.954 2.094A27.3 27.3 0 0 0 21.146 0a18.708 18.708 0 0 0-.872 1.772 25.364 25.364 0 0 0-7.556 0A18.77 18.77 0 0 0 11.846 0a27.493 27.493 0 0 0-6.813 2.099C.724 8.47-.444 14.684.14 20.81A27.446 27.446 0 0 0 8.49 25a20.158 20.158 0 0 0 1.788-2.882 17.763 17.763 0 0 1-2.816-1.344c.236-.172.467-.348.69-.52a19.622 19.622 0 0 0 16.695 0c.226.185.457.361.69.52-.898.53-1.843.98-2.82 1.346A19.974 19.974 0 0 0 24.504 25a27.323 27.323 0 0 0 8.355-4.187c.685-7.104-1.17-13.26-4.906-18.72ZM11.018 17.043c-1.627 0-2.972-1.476-2.972-3.292 0-1.817 1.298-3.306 2.967-3.306s3.003 1.49 2.975 3.306c-.03 1.816-1.311 3.292-2.97 3.292Zm10.964 0c-1.63 0-2.97-1.476-2.97-3.292 0-1.817 1.298-3.306 2.97-3.306 1.671 0 2.995 1.49 2.966 3.306-.028 1.816-1.308 3.292-2.966 3.292Z"/></g><defs><clipPath id="a"><path fill="#fff" d="M0 0h33v25H0z"/></clipPath></defs></svg>