<svg xmlns="http://www.w3.org/2000/svg" width="43" height="43" fill="#fff"><path d="M2.823 15.536c.226.775.54 1.522.936 2.223l-1.13 1.426a1.17 1.17 0 0 0 .088 1.55l1.947 1.946c.42.42 1.084.457 1.55.088l1.416-1.121c.728.42 1.503.747 2.31.978l.213 1.822c.069.59.567 1.033 1.158 1.033h2.754c.59 0 1.088-.443 1.157-1.033l.203-1.758a10.407 10.407 0 0 0 2.477-1l1.37 1.084a1.17 1.17 0 0 0 1.55-.088l1.947-1.947c.42-.42.457-1.084.088-1.55l-1.066-1.351c.443-.766.789-1.582 1.02-2.436l1.642-.189a1.167 1.167 0 0 0 1.033-1.158v-2.754c0-.59-.443-1.088-1.033-1.157l-1.62-.19a10.23 10.23 0 0 0-.977-2.407l.996-1.26a1.17 1.17 0 0 0-.088-1.55l-1.942-1.942a1.165 1.165 0 0 0-1.55-.087l-1.222.968a10.266 10.266 0 0 0-2.532-1.06l-.185-1.583A1.167 1.167 0 0 0 14.175 0h-2.754c-.59 0-1.088.443-1.157 1.033l-.185 1.582c-.913.245-1.785.614-2.597 1.098L6.213 2.708a1.17 1.17 0 0 0-1.55.087L2.718 4.742a1.165 1.165 0 0 0-.088 1.55l1.06 1.342a10.035 10.035 0 0 0-.96 2.431l-1.697.194c-.59.07-1.033.567-1.033 1.158v2.754c0 .59.443 1.088 1.033 1.158l1.79.207Zm9.978-7.45a4.56 4.56 0 0 1 4.552 4.553 4.56 4.56 0 0 1-4.552 4.553 4.56 4.56 0 0 1-4.553-4.553A4.56 4.56 0 0 1 12.8 8.086Z"/><path d="m40.026 16.214-1.453-1.227a1.15 1.15 0 0 0-1.532.042l-.802.752a8.297 8.297 0 0 0-2.14-.692l-.227-1.107a1.16 1.16 0 0 0-1.227-.923l-1.896.162a1.155 1.155 0 0 0-1.056 1.111l-.037 1.126a8.325 8.325 0 0 0-2.043 1.074l-.96-.636a1.152 1.152 0 0 0-1.517.217l-1.227 1.462a1.15 1.15 0 0 0 .041 1.532l.84.894a8.598 8.598 0 0 0-.619 2.048l-1.199.245a1.16 1.16 0 0 0-.923 1.227l.162 1.896c.05.581.526 1.038 1.112 1.056l1.296.042a8.41 8.41 0 0 0 .918 1.752l-.724 1.094a1.152 1.152 0 0 0 .216 1.517l1.454 1.227a1.15 1.15 0 0 0 1.531-.041l.95-.89c.623.29 1.278.507 1.951.636l.263 1.301a1.16 1.16 0 0 0 1.227.923l1.896-.162a1.155 1.155 0 0 0 1.057-1.112l.041-1.273a8.53 8.53 0 0 0 1.951-.987l1.047.692c.49.323 1.14.23 1.518-.217l1.227-1.453a1.15 1.15 0 0 0-.041-1.531l-.845-.895c.31-.655.536-1.347.665-2.057l1.153-.236a1.16 1.16 0 0 0 .922-1.227l-.161-1.896a1.155 1.155 0 0 0-1.112-1.056l-1.157-.037a8.375 8.375 0 0 0-.965-1.9l.632-.95a1.147 1.147 0 0 0-.207-1.523Zm-7.146 10.96a3.727 3.727 0 1 1-.626-7.427 3.727 3.727 0 0 1 .627 7.427ZM9.456 32.276a1.152 1.152 0 0 0-1.033 1.135l-.014 1.167a1.15 1.15 0 0 0 1.006 1.158l.858.11a6.63 6.63 0 0 0 .609 1.49l-.554.683a1.15 1.15 0 0 0 .07 1.532l.816.834c.41.42 1.066.466 1.531.107l.688-.53a6.78 6.78 0 0 0 1.531.668l.092.886c.06.58.55 1.028 1.135 1.033l1.167.014a1.15 1.15 0 0 0 1.158-1.006l.106-.84a6.934 6.934 0 0 0 1.66-.645l.647.521a1.15 1.15 0 0 0 1.531-.07l.835-.816a1.15 1.15 0 0 0 .106-1.531l-.494-.641c.305-.508.54-1.047.702-1.615l.765-.078a1.152 1.152 0 0 0 1.034-1.135l.014-1.167a1.15 1.15 0 0 0-1.006-1.158l-.747-.097a6.952 6.952 0 0 0-.632-1.614l.466-.572a1.15 1.15 0 0 0-.07-1.532l-.816-.835a1.152 1.152 0 0 0-1.532-.106l-.558.43a6.785 6.785 0 0 0-1.679-.73l-.074-.724a1.152 1.152 0 0 0-1.134-1.033l-1.167-.014a1.15 1.15 0 0 0-1.158 1.006l-.093.72a6.967 6.967 0 0 0-1.739.71l-.576-.47a1.15 1.15 0 0 0-1.532.068l-.84.822a1.152 1.152 0 0 0-.105 1.53l.493.637a6.751 6.751 0 0 0-.66 1.615l-.807.083Zm7.533-1.32a3.038 3.038 0 0 1 2.998 3.073 3.038 3.038 0 0 1-3.072 2.998 3.038 3.038 0 0 1-2.998-3.072 3.038 3.038 0 0 1 3.072-2.998Z"/></svg>