<svg xmlns="http://www.w3.org/2000/svg" width="33" height="33" fill="none"><g clip-path="url(#a)"><path fill="#fff" fill-rule="evenodd" d="M16.5 0C25.613 0 33 7.573 33 16.917c0 7.473-4.722 13.813-11.274 16.052-.837.166-1.134-.362-1.134-.813 0-.557.02-2.379.02-4.643 0-1.577-.528-2.607-1.12-3.131 3.674-.42 7.535-1.85 7.535-8.348 0-1.848-.64-3.356-1.7-4.54.172-.428.738-2.148-.161-4.478 0 0-1.383-.454-4.533 1.734a15.502 15.502 0 0 0-4.133-.57 15.47 15.47 0 0 0-4.13.57C9.217 6.562 7.83 7.016 7.83 7.016c-.895 2.33-.33 4.05-.16 4.478-1.053 1.184-1.699 2.692-1.699 4.54 0 6.482 3.853 7.934 7.518 8.361-.472.423-.9 1.168-1.048 2.262-.94.432-3.33 1.18-4.802-1.405 0 0-.872-1.625-2.529-1.744 0 0-1.609-.022-.112 1.028 0 0 1.08.52 1.831 2.475 0 0 .969 3.02 5.56 1.996.008 1.414.022 2.747.022 3.15 0 .447-.303.97-1.127.813C4.727 30.734 0 24.392 0 16.917 0 7.573 7.389 0 16.5 0Z" clip-rule="evenodd"/></g><defs><clipPath id="a"><path fill="#fff" d="M0 0h33v33H0z"/></clipPath></defs></svg>