<svg xmlns="http://www.w3.org/2000/svg" width="33" height="16" fill="none"><g clip-path="url(#a)"><path fill="#fff" d="M8.25 16h2.063V3.405A5.352 5.352 0 0 0 8.25 4.508V16ZM4.125 7.48v8.506l.133.014h1.93V7.466h-1.93l-.133.013ZM0 11.731c0 1.549.831 2.892 2.062 3.641V8.095A4.253 4.253 0 0 0 0 11.732ZM12.375 16h2.063V3.96a5.253 5.253 0 0 0-2.063-.714V16Zm16.367-8.534h-1.16c.059-.348.096-.7.096-1.066 0-3.535-2.86-6.4-6.388-6.4-1.914 0-3.62.854-4.79 2.192V16h12.242C31.092 16 33 14.09 33 11.732a4.262 4.262 0 0 0-4.258-4.265Z"/></g><defs><clipPath id="a"><path fill="#fff" d="M0 0h33v16H0z"/></clipPath></defs></svg>