<svg xmlns="http://www.w3.org/2000/svg" width="33" height="24" fill="none"><g clip-path="url(#a)"><path fill="#fff" fill-rule="evenodd" d="m13.093 16.426-.001-9.588 8.916 4.81-8.915 4.778ZM32.67 5.177s-.323-2.351-1.312-3.387C30.103.43 28.697.424 28.052.345 23.434 0 16.507 0 16.507 0h-.014S9.566 0 4.948.345C4.302.425 2.897.431 1.64 1.79.65 2.826.33 5.177.33 5.177S0 7.94 0 10.7v2.589c0 2.761.33 5.522.33 5.522s.322 2.352 1.31 3.387c1.257 1.36 2.906 1.317 3.64 1.459C7.92 23.919 16.5 24 16.5 24s6.934-.01 11.552-.356c.645-.08 2.051-.086 3.306-1.446.99-1.035 1.312-3.387 1.312-3.387s.33-2.76.33-5.522v-2.59c0-2.76-.33-5.522-.33-5.522Z" clip-rule="evenodd"/></g><defs><clipPath id="a"><path fill="#fff" d="M0 0h33v24H0z"/></clipPath></defs></svg>